<svg aria-roledescription="er" role="graphics-document document" viewBox="0 0 486.5594177246094 458.03125" height="458.03125" xmlns="http://www.w3.org/2000/svg" width="486.5594177246094" id="tmpMermaidElement4882"><style>svg {background: white;}#tmpMermaidElement4882{font-family:"trebuchet ms",verdana,arial,sans-serif;font-size:16px;fill:#333;}#tmpMermaidElement4882 .error-icon{fill:#552222;}#tmpMermaidElement4882 .error-text{fill:#552222;stroke:#552222;}#tmpMermaidElement4882 .edge-thickness-normal{stroke-width:2px;}#tmpMermaidElement4882 .edge-thickness-thick{stroke-width:3.5px;}#tmpMermaidElement4882 .edge-pattern-solid{stroke-dasharray:0;}#tmpMermaidElement4882 .edge-pattern-dashed{stroke-dasharray:3;}#tmpMermaidElement4882 .edge-pattern-dotted{stroke-dasharray:2;}#tmpMermaidElement4882 .marker{fill:#333333;stroke:#333333;}#tmpMermaidElement4882 .marker.cross{stroke:#333333;}#tmpMermaidElement4882 svg{font-family:"trebuchet ms",verdana,arial,sans-serif;font-size:16px;}#tmpMermaidElement4882 .entityBox{fill:#ECECFF;stroke:#9370DB;}#tmpMermaidElement4882 .attributeBoxOdd{fill:#ffffff;stroke:#9370DB;}#tmpMermaidElement4882 .attributeBoxEven{fill:#f2f2f2;stroke:#9370DB;}#tmpMermaidElement4882 .relationshipLabelBox{fill:hsl(80, 100%, 96.2745098039%);opacity:0.7;background-color:hsl(80, 100%, 96.2745098039%);}#tmpMermaidElement4882 .relationshipLabelBox rect{opacity:0.5;}#tmpMermaidElement4882 .relationshipLine{stroke:#333333;}#tmpMermaidElement4882 .entityTitleText{text-anchor:middle;font-size:18px;fill:#333;}#tmpMermaidElement4882 #MD_PARENT_START{fill:#f5f5f5!important;stroke:#333333!important;stroke-width:1;}#tmpMermaidElement4882 #MD_PARENT_END{fill:#f5f5f5!important;stroke:#333333!important;stroke-width:1;}#tmpMermaidElement4882 :root{--mermaid-font-family:"trebuchet ms",verdana,arial,sans-serif;}</style><g></g><defs><marker orient="auto" markerHeight="240" markerWidth="190" refY="7" refX="0" id="MD_PARENT_START"><path d="M 18,7 L9,13 L1,7 L9,1 Z"></path></marker></defs><defs><marker orient="auto" markerHeight="28" markerWidth="20" refY="7" refX="19" id="MD_PARENT_END"><path d="M 18,7 L9,13 L1,7 L9,1 Z"></path></marker></defs><defs><marker orient="auto" markerHeight="18" markerWidth="18" refY="9" refX="0" id="ONLY_ONE_START"><path d="M9,0 L9,18 M15,0 L15,18" fill="none" stroke="gray"></path></marker></defs><defs><marker orient="auto" markerHeight="18" markerWidth="18" refY="9" refX="18" id="ONLY_ONE_END"><path d="M3,0 L3,18 M9,0 L9,18" fill="none" stroke="gray"></path></marker></defs><defs><marker orient="auto" markerHeight="18" markerWidth="30" refY="9" refX="0" id="ZERO_OR_ONE_START"><circle r="6" cy="9" cx="21" fill="white" stroke="gray"></circle><path d="M9,0 L9,18" fill="none" stroke="gray"></path></marker></defs><defs><marker orient="auto" markerHeight="18" markerWidth="30" refY="9" refX="30" id="ZERO_OR_ONE_END"><circle r="6" cy="9" cx="9" fill="white" stroke="gray"></circle><path d="M21,0 L21,18" fill="none" stroke="gray"></path></marker></defs><defs><marker orient="auto" markerHeight="36" markerWidth="45" refY="18" refX="18" id="ONE_OR_MORE_START"><path d="M0,18 Q 18,0 36,18 Q 18,36 0,18 M42,9 L42,27" fill="none" stroke="gray"></path></marker></defs><defs><marker orient="auto" markerHeight="36" markerWidth="45" refY="18" refX="27" id="ONE_OR_MORE_END"><path d="M3,9 L3,27 M9,18 Q27,0 45,18 Q27,36 9,18" fill="none" stroke="gray"></path></marker></defs><defs><marker orient="auto" markerHeight="36" markerWidth="57" refY="18" refX="18" id="ZERO_OR_MORE_START"><circle r="6" cy="18" cx="48" fill="white" stroke="gray"></circle><path d="M0,18 Q18,0 36,18 Q18,36 0,18" fill="none" stroke="gray"></path></marker></defs><defs><marker orient="auto" markerHeight="36" markerWidth="57" refY="18" refX="39" id="ZERO_OR_MORE_END"><circle r="6" cy="18" cx="9" fill="white" stroke="gray"></circle><path d="M21,18 Q39,0 57,18 Q39,36 21,18" fill="none" stroke="gray"></path></marker></defs><path style="stroke: gray; fill: none;" marker-start="url(#ONLY_ONE_START)" marker-end="url(#ZERO_OR_MORE_END)" d="M114.619,179.016L114.619,189.349C114.619,199.682,114.619,220.349,114.619,243.016C114.619,265.682,114.619,290.349,114.619,302.682L114.619,315.016" class="er relationshipLine"></path><path style="stroke: gray; fill: none;" marker-start="url(#ONE_OR_MORE_START)" marker-end="url(#ONLY_ONE_END)" d="M331.928,191.016L326.659,199.349C321.389,207.682,310.849,224.349,311.361,241.016C311.873,257.682,323.437,274.349,329.219,282.682L335,291.016" class="er relationshipLine"></path><path style="stroke: gray; fill: none;" marker-start="url(#ONLY_ONE_START)" marker-end="url(#ZERO_OR_MORE_END)" d="M415.759,291.016L419.133,282.682C422.506,274.349,429.254,257.682,429.552,241.016C429.851,224.349,423.701,207.682,420.627,199.349L417.552,191.016" class="er relationshipLine"></path><g transform="translate(20,32 )" id="entity-Routes-eb6026b4-4615-5a75-9b4c-3a9c575370e7"><rect height="147.015625" width="189.23779296875" y="0" x="0" class="er entityBox"></rect><text style="dominant-baseline: middle; text-anchor: middle; font-size: 12px;" transform="translate(94.618896484375,13.5078125)" y="0" x="0" id="text-entity-Routes-eb6026b4-4615-5a75-9b4c-3a9c575370e7" class="er entityLabel">Routes</text><rect height="24" width="75.140625" y="27.015625" x="0" class="er attributeBoxOdd"></rect><text style="dominant-baseline: middle; font-size: 10.2px;" transform="translate(5,39.015625)" y="0" x="0" id="text-entity-Routes-eb6026b4-4615-5a75-9b4c-3a9c575370e7-attr-1-type" class="er entityLabel">int</text><rect height="24" width="90.96875" y="27.015625" x="75.140625" class="er attributeBoxOdd"></rect><text style="dominant-baseline: middle; font-size: 10.2px;" transform="translate(80.140625,39.015625)" y="0" x="0" id="text-entity-Routes-eb6026b4-4615-5a75-9b4c-3a9c575370e7-attr-1-name" class="er entityLabel">id</text><rect height="24" width="23.12841796875" y="27.015625" x="166.109375" class="er attributeBoxOdd"></rect><text style="dominant-baseline: middle; font-size: 10.2px;" transform="translate(171.109375,39.015625)" y="0" x="0" id="text-entity-Routes-eb6026b4-4615-5a75-9b4c-3a9c575370e7-attr-1-key" class="er entityLabel">PK</text><rect height="24" width="75.140625" y="51.015625" x="0" class="er attributeBoxEven"></rect><text style="dominant-baseline: middle; font-size: 10.2px;" transform="translate(5,63.015625)" y="0" x="0" id="text-entity-Routes-eb6026b4-4615-5a75-9b4c-3a9c575370e7-attr-2-type" class="er entityLabel">string</text><rect height="24" width="90.96875" y="51.015625" x="75.140625" class="er attributeBoxEven"></rect><text style="dominant-baseline: middle; font-size: 10.2px;" transform="translate(80.140625,63.015625)" y="0" x="0" id="text-entity-Routes-eb6026b4-4615-5a75-9b4c-3a9c575370e7-attr-2-name" class="er entityLabel">path</text><rect height="24" width="23.12841796875" y="51.015625" x="166.109375" class="er attributeBoxEven"></rect><text style="dominant-baseline: middle; font-size: 10.2px;" transform="translate(171.109375,63.015625)" y="0" x="0" id="text-entity-Routes-eb6026b4-4615-5a75-9b4c-3a9c575370e7-attr-2-key" class="er entityLabel"></text><rect height="24" width="75.140625" y="75.015625" x="0" class="er attributeBoxOdd"></rect><text style="dominant-baseline: middle; font-size: 10.2px;" transform="translate(5,87.015625)" y="0" x="0" id="text-entity-Routes-eb6026b4-4615-5a75-9b4c-3a9c575370e7-attr-3-type" class="er entityLabel">RouteMethod</text><rect height="24" width="90.96875" y="75.015625" x="75.140625" class="er attributeBoxOdd"></rect><text style="dominant-baseline: middle; font-size: 10.2px;" transform="translate(80.140625,87.015625)" y="0" x="0" id="text-entity-Routes-eb6026b4-4615-5a75-9b4c-3a9c575370e7-attr-3-name" class="er entityLabel">method</text><rect height="24" width="23.12841796875" y="75.015625" x="166.109375" class="er attributeBoxOdd"></rect><text style="dominant-baseline: middle; font-size: 10.2px;" transform="translate(171.109375,87.015625)" y="0" x="0" id="text-entity-Routes-eb6026b4-4615-5a75-9b4c-3a9c575370e7-attr-3-key" class="er entityLabel"></text><rect height="24" width="75.140625" y="99.015625" x="0" class="er attributeBoxEven"></rect><text style="dominant-baseline: middle; font-size: 10.2px;" transform="translate(5,111.015625)" y="0" x="0" id="text-entity-Routes-eb6026b4-4615-5a75-9b4c-3a9c575370e7-attr-4-type" class="er entityLabel">Json</text><rect height="24" width="90.96875" y="99.015625" x="75.140625" class="er attributeBoxEven"></rect><text style="dominant-baseline: middle; font-size: 10.2px;" transform="translate(80.140625,111.015625)" y="0" x="0" id="text-entity-Routes-eb6026b4-4615-5a75-9b4c-3a9c575370e7-attr-4-name" class="er entityLabel">configuration</text><rect height="24" width="23.12841796875" y="99.015625" x="166.109375" class="er attributeBoxEven"></rect><text style="dominant-baseline: middle; font-size: 10.2px;" transform="translate(171.109375,111.015625)" y="0" x="0" id="text-entity-Routes-eb6026b4-4615-5a75-9b4c-3a9c575370e7-attr-4-key" class="er entityLabel"></text><rect height="24" width="75.140625" y="123.015625" x="0" class="er attributeBoxOdd"></rect><text style="dominant-baseline: middle; font-size: 10.2px;" transform="translate(5,135.015625)" y="0" x="0" id="text-entity-Routes-eb6026b4-4615-5a75-9b4c-3a9c575370e7-attr-5-type" class="er entityLabel">int</text><rect height="24" width="90.96875" y="123.015625" x="75.140625" class="er attributeBoxOdd"></rect><text style="dominant-baseline: middle; font-size: 10.2px;" transform="translate(80.140625,135.015625)" y="0" x="0" id="text-entity-Routes-eb6026b4-4615-5a75-9b4c-3a9c575370e7-attr-5-name" class="er entityLabel">proxy_domain_id</text><rect height="24" width="23.12841796875" y="123.015625" x="166.109375" class="er attributeBoxOdd"></rect><text style="dominant-baseline: middle; font-size: 10.2px;" transform="translate(171.109375,135.015625)" y="0" x="0" id="text-entity-Routes-eb6026b4-4615-5a75-9b4c-3a9c575370e7-attr-5-key" class="er entityLabel">FK</text></g><g transform="translate(57.8359375,315.015625 )" id="entity-ProxyDomains-ea4ece08-2600-586d-a1cd-7b40e7edfeab"><rect height="99.015625" width="113.56591796875" y="0" x="0" class="er entityBox"></rect><text style="dominant-baseline: middle; text-anchor: middle; font-size: 12px;" transform="translate(56.782958984375,13.5078125)" y="0" x="0" id="text-entity-ProxyDomains-ea4ece08-2600-586d-a1cd-7b40e7edfeab" class="er entityLabel">ProxyDomains</text><rect height="24" width="43.015625" y="27.015625" x="0" class="er attributeBoxOdd"></rect><text style="dominant-baseline: middle; font-size: 10.2px;" transform="translate(5,39.015625)" y="0" x="0" id="text-entity-ProxyDomains-ea4ece08-2600-586d-a1cd-7b40e7edfeab-attr-1-type" class="er entityLabel">int</text><rect height="24" width="47.421875" y="27.015625" x="43.015625" class="er attributeBoxOdd"></rect><text style="dominant-baseline: middle; font-size: 10.2px;" transform="translate(48.015625,39.015625)" y="0" x="0" id="text-entity-ProxyDomains-ea4ece08-2600-586d-a1cd-7b40e7edfeab-attr-1-name" class="er entityLabel">id</text><rect height="24" width="23.12841796875" y="27.015625" x="90.4375" class="er attributeBoxOdd"></rect><text style="dominant-baseline: middle; font-size: 10.2px;" transform="translate(95.4375,39.015625)" y="0" x="0" id="text-entity-ProxyDomains-ea4ece08-2600-586d-a1cd-7b40e7edfeab-attr-1-key" class="er entityLabel">PK</text><rect height="24" width="43.015625" y="51.015625" x="0" class="er attributeBoxEven"></rect><text style="dominant-baseline: middle; font-size: 10.2px;" transform="translate(5,63.015625)" y="0" x="0" id="text-entity-ProxyDomains-ea4ece08-2600-586d-a1cd-7b40e7edfeab-attr-2-type" class="er entityLabel">string</text><rect height="24" width="47.421875" y="51.015625" x="43.015625" class="er attributeBoxEven"></rect><text style="dominant-baseline: middle; font-size: 10.2px;" transform="translate(48.015625,63.015625)" y="0" x="0" id="text-entity-ProxyDomains-ea4ece08-2600-586d-a1cd-7b40e7edfeab-attr-2-name" class="er entityLabel">domain</text><rect height="24" width="23.12841796875" y="51.015625" x="90.4375" class="er attributeBoxEven"></rect><text style="dominant-baseline: middle; font-size: 10.2px;" transform="translate(95.4375,63.015625)" y="0" x="0" id="text-entity-ProxyDomains-ea4ece08-2600-586d-a1cd-7b40e7edfeab-attr-2-key" class="er entityLabel"></text><rect height="24" width="43.015625" y="75.015625" x="0" class="er attributeBoxOdd"></rect><text style="dominant-baseline: middle; font-size: 10.2px;" transform="translate(5,87.015625)" y="0" x="0" id="text-entity-ProxyDomains-ea4ece08-2600-586d-a1cd-7b40e7edfeab-attr-3-type" class="er entityLabel">Routes</text><rect height="24" width="47.421875" y="75.015625" x="43.015625" class="er attributeBoxOdd"></rect><text style="dominant-baseline: middle; font-size: 10.2px;" transform="translate(48.015625,87.015625)" y="0" x="0" id="text-entity-ProxyDomains-ea4ece08-2600-586d-a1cd-7b40e7edfeab-attr-3-name" class="er entityLabel">routes[]</text><rect height="24" width="23.12841796875" y="75.015625" x="90.4375" class="er attributeBoxOdd"></rect><text style="dominant-baseline: middle; font-size: 10.2px;" transform="translate(95.4375,87.015625)" y="0" x="0" id="text-entity-ProxyDomains-ea4ece08-2600-586d-a1cd-7b40e7edfeab-attr-3-key" class="er entityLabel"></text></g><g transform="translate(309.23779296875,20 )" id="entity-Scenarios-d4dc3d24-5d0e-5c1a-be18-00d054a74e16"><rect height="171.015625" width="153.52618408203125" y="0" x="0" class="er entityBox"></rect><text style="dominant-baseline: middle; text-anchor: middle; font-size: 12px;" transform="translate(76.76309204101562,13.5078125)" y="0" x="0" id="text-entity-Scenarios-d4dc3d24-5d0e-5c1a-be18-00d054a74e16" class="er entityLabel">Scenarios</text><rect height="24" width="73.90658569335938" y="27.015625" x="0" class="er attributeBoxOdd"></rect><text style="dominant-baseline: middle; font-size: 10.2px;" transform="translate(5,39.015625)" y="0" x="0" id="text-entity-Scenarios-d4dc3d24-5d0e-5c1a-be18-00d054a74e16-attr-1-type" class="er entityLabel">int</text><rect height="24" width="56.491180419921875" y="27.015625" x="73.90658569335938" class="er attributeBoxOdd"></rect><text style="dominant-baseline: middle; font-size: 10.2px;" transform="translate(78.90658569335938,39.015625)" y="0" x="0" id="text-entity-Scenarios-d4dc3d24-5d0e-5c1a-be18-00d054a74e16-attr-1-name" class="er entityLabel">id</text><rect height="24" width="23.12841796875" y="27.015625" x="130.39776611328125" class="er attributeBoxOdd"></rect><text style="dominant-baseline: middle; font-size: 10.2px;" transform="translate(135.39776611328125,39.015625)" y="0" x="0" id="text-entity-Scenarios-d4dc3d24-5d0e-5c1a-be18-00d054a74e16-attr-1-key" class="er entityLabel">PK</text><rect height="24" width="73.90658569335938" y="51.015625" x="0" class="er attributeBoxEven"></rect><text style="dominant-baseline: middle; font-size: 10.2px;" transform="translate(5,63.015625)" y="0" x="0" id="text-entity-Scenarios-d4dc3d24-5d0e-5c1a-be18-00d054a74e16-attr-2-type" class="er entityLabel">string</text><rect height="24" width="56.491180419921875" y="51.015625" x="73.90658569335938" class="er attributeBoxEven"></rect><text style="dominant-baseline: middle; font-size: 10.2px;" transform="translate(78.90658569335938,63.015625)" y="0" x="0" id="text-entity-Scenarios-d4dc3d24-5d0e-5c1a-be18-00d054a74e16-attr-2-name" class="er entityLabel">name</text><rect height="24" width="23.12841796875" y="51.015625" x="130.39776611328125" class="er attributeBoxEven"></rect><text style="dominant-baseline: middle; font-size: 10.2px;" transform="translate(135.39776611328125,63.015625)" y="0" x="0" id="text-entity-Scenarios-d4dc3d24-5d0e-5c1a-be18-00d054a74e16-attr-2-key" class="er entityLabel"></text><rect height="24" width="73.90658569335938" y="75.015625" x="0" class="er attributeBoxOdd"></rect><text style="dominant-baseline: middle; font-size: 10.2px;" transform="translate(5,87.015625)" y="0" x="0" id="text-entity-Scenarios-d4dc3d24-5d0e-5c1a-be18-00d054a74e16-attr-3-type" class="er entityLabel">Json</text><rect height="24" width="56.491180419921875" y="75.015625" x="73.90658569335938" class="er attributeBoxOdd"></rect><text style="dominant-baseline: middle; font-size: 10.2px;" transform="translate(78.90658569335938,87.015625)" y="0" x="0" id="text-entity-Scenarios-d4dc3d24-5d0e-5c1a-be18-00d054a74e16-attr-3-name" class="er entityLabel">variables</text><rect height="24" width="23.12841796875" y="75.015625" x="130.39776611328125" class="er attributeBoxOdd"></rect><text style="dominant-baseline: middle; font-size: 10.2px;" transform="translate(135.39776611328125,87.015625)" y="0" x="0" id="text-entity-Scenarios-d4dc3d24-5d0e-5c1a-be18-00d054a74e16-attr-3-key" class="er entityLabel"></text><rect height="24" width="73.90658569335938" y="99.015625" x="0" class="er attributeBoxEven"></rect><text style="dominant-baseline: middle; font-size: 10.2px;" transform="translate(5,111.015625)" y="0" x="0" id="text-entity-Scenarios-d4dc3d24-5d0e-5c1a-be18-00d054a74e16-attr-4-type" class="er entityLabel">Json</text><rect height="24" width="56.491180419921875" y="99.015625" x="73.90658569335938" class="er attributeBoxEven"></rect><text style="dominant-baseline: middle; font-size: 10.2px;" transform="translate(78.90658569335938,111.015625)" y="0" x="0" id="text-entity-Scenarios-d4dc3d24-5d0e-5c1a-be18-00d054a74e16-attr-4-name" class="er entityLabel">attributes</text><rect height="24" width="23.12841796875" y="99.015625" x="130.39776611328125" class="er attributeBoxEven"></rect><text style="dominant-baseline: middle; font-size: 10.2px;" transform="translate(135.39776611328125,111.015625)" y="0" x="0" id="text-entity-Scenarios-d4dc3d24-5d0e-5c1a-be18-00d054a74e16-attr-4-key" class="er entityLabel"></text><rect height="24" width="73.90658569335938" y="123.015625" x="0" class="er attributeBoxOdd"></rect><text style="dominant-baseline: middle; font-size: 10.2px;" transform="translate(5,135.015625)" y="0" x="0" id="text-entity-Scenarios-d4dc3d24-5d0e-5c1a-be18-00d054a74e16-attr-5-type" class="er entityLabel">ScenarioType</text><rect height="24" width="56.491180419921875" y="123.015625" x="73.90658569335938" class="er attributeBoxOdd"></rect><text style="dominant-baseline: middle; font-size: 10.2px;" transform="translate(78.90658569335938,135.015625)" y="0" x="0" id="text-entity-Scenarios-d4dc3d24-5d0e-5c1a-be18-00d054a74e16-attr-5-name" class="er entityLabel">type</text><rect height="24" width="23.12841796875" y="123.015625" x="130.39776611328125" class="er attributeBoxOdd"></rect><text style="dominant-baseline: middle; font-size: 10.2px;" transform="translate(135.39776611328125,135.015625)" y="0" x="0" id="text-entity-Scenarios-d4dc3d24-5d0e-5c1a-be18-00d054a74e16-attr-5-key" class="er entityLabel"></text><rect height="24" width="73.90658569335938" y="147.015625" x="0" class="er attributeBoxEven"></rect><text style="dominant-baseline: middle; font-size: 10.2px;" transform="translate(5,159.015625)" y="0" x="0" id="text-entity-Scenarios-d4dc3d24-5d0e-5c1a-be18-00d054a74e16-attr-6-type" class="er entityLabel">string</text><rect height="24" width="56.491180419921875" y="147.015625" x="73.90658569335938" class="er attributeBoxEven"></rect><text style="dominant-baseline: middle; font-size: 10.2px;" transform="translate(78.90658569335938,159.015625)" y="0" x="0" id="text-entity-Scenarios-d4dc3d24-5d0e-5c1a-be18-00d054a74e16-attr-6-name" class="er entityLabel">mock</text><rect height="24" width="23.12841796875" y="147.015625" x="130.39776611328125" class="er attributeBoxEven"></rect><text style="dominant-baseline: middle; font-size: 10.2px;" transform="translate(135.39776611328125,159.015625)" y="0" x="0" id="text-entity-Scenarios-d4dc3d24-5d0e-5c1a-be18-00d054a74e16-attr-6-key" class="er entityLabel"></text></g><g transform="translate(305.4423522949219,291.015625 )" id="entity-Mocks-537da750-afec-5164-a4ce-42c4b7e89d70"><rect height="147.015625" width="161.1170654296875" y="0" x="0" class="er entityBox"></rect><text style="dominant-baseline: middle; text-anchor: middle; font-size: 12px;" transform="translate(80.55853271484375,13.5078125)" y="0" x="0" id="text-entity-Mocks-537da750-afec-5164-a4ce-42c4b7e89d70" class="er entityLabel">Mocks</text><rect height="24" width="55.95892333984375" y="27.015625" x="0" class="er attributeBoxOdd"></rect><text style="dominant-baseline: middle; font-size: 10.2px;" transform="translate(5,39.015625)" y="0" x="0" id="text-entity-Mocks-537da750-afec-5164-a4ce-42c4b7e89d70-attr-1-type" class="er entityLabel">int</text><rect height="24" width="82.02972412109375" y="27.015625" x="55.95892333984375" class="er attributeBoxOdd"></rect><text style="dominant-baseline: middle; font-size: 10.2px;" transform="translate(60.95892333984375,39.015625)" y="0" x="0" id="text-entity-Mocks-537da750-afec-5164-a4ce-42c4b7e89d70-attr-1-name" class="er entityLabel">id</text><rect height="24" width="23.12841796875" y="27.015625" x="137.9886474609375" class="er attributeBoxOdd"></rect><text style="dominant-baseline: middle; font-size: 10.2px;" transform="translate(142.9886474609375,39.015625)" y="0" x="0" id="text-entity-Mocks-537da750-afec-5164-a4ce-42c4b7e89d70-attr-1-key" class="er entityLabel">PK</text><rect height="24" width="55.95892333984375" y="51.015625" x="0" class="er attributeBoxEven"></rect><text style="dominant-baseline: middle; font-size: 10.2px;" transform="translate(5,63.015625)" y="0" x="0" id="text-entity-Mocks-537da750-afec-5164-a4ce-42c4b7e89d70-attr-2-type" class="er entityLabel">Json</text><rect height="24" width="82.02972412109375" y="51.015625" x="55.95892333984375" class="er attributeBoxEven"></rect><text style="dominant-baseline: middle; font-size: 10.2px;" transform="translate(60.95892333984375,63.015625)" y="0" x="0" id="text-entity-Mocks-537da750-afec-5164-a4ce-42c4b7e89d70-attr-2-name" class="er entityLabel">body</text><rect height="24" width="23.12841796875" y="51.015625" x="137.9886474609375" class="er attributeBoxEven"></rect><text style="dominant-baseline: middle; font-size: 10.2px;" transform="translate(142.9886474609375,63.015625)" y="0" x="0" id="text-entity-Mocks-537da750-afec-5164-a4ce-42c4b7e89d70-attr-2-key" class="er entityLabel"></text><rect height="24" width="55.95892333984375" y="75.015625" x="0" class="er attributeBoxOdd"></rect><text style="dominant-baseline: middle; font-size: 10.2px;" transform="translate(5,87.015625)" y="0" x="0" id="text-entity-Mocks-537da750-afec-5164-a4ce-42c4b7e89d70-attr-3-type" class="er entityLabel">Json</text><rect height="24" width="82.02972412109375" y="75.015625" x="55.95892333984375" class="er attributeBoxOdd"></rect><text style="dominant-baseline: middle; font-size: 10.2px;" transform="translate(60.95892333984375,87.015625)" y="0" x="0" id="text-entity-Mocks-537da750-afec-5164-a4ce-42c4b7e89d70-attr-3-name" class="er entityLabel">headers</text><rect height="24" width="23.12841796875" y="75.015625" x="137.9886474609375" class="er attributeBoxOdd"></rect><text style="dominant-baseline: middle; font-size: 10.2px;" transform="translate(142.9886474609375,87.015625)" y="0" x="0" id="text-entity-Mocks-537da750-afec-5164-a4ce-42c4b7e89d70-attr-3-key" class="er entityLabel"></text><rect height="24" width="55.95892333984375" y="99.015625" x="0" class="er attributeBoxEven"></rect><text style="dominant-baseline: middle; font-size: 10.2px;" transform="translate(5,111.015625)" y="0" x="0" id="text-entity-Mocks-537da750-afec-5164-a4ce-42c4b7e89d70-attr-4-type" class="er entityLabel">string</text><rect height="24" width="82.02972412109375" y="99.015625" x="55.95892333984375" class="er attributeBoxEven"></rect><text style="dominant-baseline: middle; font-size: 10.2px;" transform="translate(60.95892333984375,111.015625)" y="0" x="0" id="text-entity-Mocks-537da750-afec-5164-a4ce-42c4b7e89d70-attr-4-name" class="er entityLabel">scenario_name</text><rect height="24" width="23.12841796875" y="99.015625" x="137.9886474609375" class="er attributeBoxEven"></rect><text style="dominant-baseline: middle; font-size: 10.2px;" transform="translate(142.9886474609375,111.015625)" y="0" x="0" id="text-entity-Mocks-537da750-afec-5164-a4ce-42c4b7e89d70-attr-4-key" class="er entityLabel">FK</text><rect height="24" width="55.95892333984375" y="123.015625" x="0" class="er attributeBoxOdd"></rect><text style="dominant-baseline: middle; font-size: 10.2px;" transform="translate(5,135.015625)" y="0" x="0" id="text-entity-Mocks-537da750-afec-5164-a4ce-42c4b7e89d70-attr-5-type" class="er entityLabel">Scenarios</text><rect height="24" width="82.02972412109375" y="123.015625" x="55.95892333984375" class="er attributeBoxOdd"></rect><text style="dominant-baseline: middle; font-size: 10.2px;" transform="translate(60.95892333984375,135.015625)" y="0" x="0" id="text-entity-Mocks-537da750-afec-5164-a4ce-42c4b7e89d70-attr-5-name" class="er entityLabel">scenarios[]</text><rect height="24" width="23.12841796875" y="123.015625" x="137.9886474609375" class="er attributeBoxOdd"></rect><text style="dominant-baseline: middle; font-size: 10.2px;" transform="translate(142.9886474609375,135.015625)" y="0" x="0" id="text-entity-Mocks-537da750-afec-5164-a4ce-42c4b7e89d70-attr-5-key" class="er entityLabel"></text></g><rect height="17.015625" width="20.02734375" y="238.5081787109375" x="104.60533142089844" class="er relationshipLabelBox"></rect><text style="text-anchor: middle; dominant-baseline: middle; font-size: 12px;" y="247.0159912109375" x="114.61900329589844" id="rel1" class="er relationshipLabel">has</text><rect height="17.015625" width="41.244140625" y="233.10353088378906" x="290.7619323730469" class="er relationshipLabelBox"></rect><text style="text-anchor: middle; dominant-baseline: middle; font-size: 12px;" y="241.61134338378906" x="311.3840026855469" id="rel2" class="er relationshipLabel">defines</text><rect height="17.015625" width="44.6171875" y="232.72824096679688" x="407.23883056640625" class="er relationshipLabelBox"></rect><text style="text-anchor: middle; dominant-baseline: middle; font-size: 12px;" y="241.23605346679688" x="429.54742431640625" id="rel3" class="er relationshipLabel">used by</text></svg>